<?xml version="1.0" encoding="UTF-8"?>
<svg id="uuid-41a91f9f-16a9-4e69-b51d-fddbd55f8a53" data-name="レイヤー 1" xmlns="http://www.w3.org/2000/svg" viewBox="0 0 160 80">
  <defs>
    <style>
      .uuid-14e5686b-4ced-4016-963f-e4b6f5acc42d {
        fill: #231815;
        stroke-width: 0px;
      }
    </style>
  </defs>
  <polygon class="uuid-14e5686b-4ced-4016-963f-e4b6f5acc42d" points="45.2 43.08 20.57 43.08 32.88 64.41 45.2 43.08"/>
  <path class="uuid-14e5686b-4ced-4016-963f-e4b6f5acc42d" d="m87.9,32.57l-15.34,8.44,5.61,3.24s.04.02.06.04c1.2.69,1.28,2.39.16,3.2l-7.1,4.87-.1,11.26,20.27-11.69v-17.31c0-3.51-.53-3.83-3.55-2.04Z"/>
  <polygon class="uuid-14e5686b-4ced-4016-963f-e4b6f5acc42d" points="129.81 46.81 139.43 52.36 119.2 64.03 119.38 52.69 129.81 46.81"/>
  <g>
    <path class="uuid-14e5686b-4ced-4016-963f-e4b6f5acc42d" d="m8.93,65.28l142.14-.38-142.14.38Z"/>
    <rect class="uuid-14e5686b-4ced-4016-963f-e4b6f5acc42d" x="8.93" y="64.61" width="142.14" height=".95" transform="translate(-.18 .22) rotate(-.16)"/>
  </g>
  <g>
    <polygon class="uuid-14e5686b-4ced-4016-963f-e4b6f5acc42d" points="103.78 23.22 100.91 24.87 100.91 54.3 103.78 55.95 103.78 23.22"/>
    <polygon class="uuid-14e5686b-4ced-4016-963f-e4b6f5acc42d" points="107.36 21.15 104.49 22.8 104.49 56.37 107.36 58.02 107.36 21.15"/>
    <polygon class="uuid-14e5686b-4ced-4016-963f-e4b6f5acc42d" points="114.76 16.88 112.13 18.39 112.13 60.78 114.76 62.3 114.76 16.88"/>
    <polygon class="uuid-14e5686b-4ced-4016-963f-e4b6f5acc42d" points="111.42 18.81 108.07 20.74 108.07 58.44 110.31 59.73 111.42 60.37 111.42 18.81"/>
    <polygon class="uuid-14e5686b-4ced-4016-963f-e4b6f5acc42d" points="115.47 16.47 115.47 62.71 118.09 64.22 118.1 39.59 118.1 14.95 115.47 16.47"/>
    <path class="uuid-14e5686b-4ced-4016-963f-e4b6f5acc42d" d="m100.19,25.28l-.84.48c-1.6.93-2.59,2.64-2.59,4.49v18.65c0,1.85.98,3.56,2.58,4.49l.85.49v-28.6Z"/>
  </g>
  <g>
    <polygon class="uuid-14e5686b-4ced-4016-963f-e4b6f5acc42d" points="63.18 47.91 59.82 45.96 59.83 58.3 63.18 60.23 63.18 47.91"/>
    <path class="uuid-14e5686b-4ced-4016-963f-e4b6f5acc42d" d="m51.96,28.76h.72v25.41l2.86,1.65v-24.91s.71,0,.71,0v25.32s2.87,1.65,2.87,1.65l-.03-24.45h.36s21.34-12.31,21.34-12.31l-7.78-4.5c-1.78-1.03-3.98-1.03-5.77,0l-18.46,10.65v21.31c0,2.06,1.09,3.96,2.86,4.99l.31.18v-24.99Z"/>
    <polygon class="uuid-14e5686b-4ced-4016-963f-e4b6f5acc42d" points="67.24 62.57 70.11 64.23 70.11 51.91 67.24 50.25 67.24 62.57"/>
    <polygon class="uuid-14e5686b-4ced-4016-963f-e4b6f5acc42d" points="66.53 49.84 63.9 48.32 63.9 60.64 66.53 62.16 66.53 49.84"/>
  </g>
</svg>