<?xml version="1.0" encoding="UTF-8"?>
<svg id="uuid-6d1d672a-73b2-476e-8826-6ccfdb8b5cac" data-name="レイヤー 1" xmlns="http://www.w3.org/2000/svg" viewBox="0 0 132.24 10.3">
  <defs>
    <style>
      .uuid-a15bd573-9504-43f9-b5a4-1eb4c1281751 {
        fill: #fff;
        stroke-width: 0px;
      }
    </style>
  </defs>
  <g>
    <path class="uuid-a15bd573-9504-43f9-b5a4-1eb4c1281751" d="m4.98,4.83h3.63v.07c0,1.51-.45,2.74-1.31,3.57-.91.89-2,1.12-3,1.12-1.28,0-2.19-.37-3-1.2-.86-.89-1.31-2.06-1.31-3.33,0-1.37.56-2.56,1.28-3.29.75-.77,1.96-1.32,3.32-1.32.79,0,1.61.17,2.3.56.73.41,1.18.92,1.43,1.32l-1.07.75c-.26-.37-.66-.77-1.08-1-.49-.29-1.02-.38-1.56-.38-1.15,0-1.89.48-2.33.91-.58.58-.94,1.52-.94,2.47,0,.89.33,1.77.91,2.39.61.65,1.36.89,2.21.89.77,0,1.4-.22,1.97-.78.49-.48.69-.99.74-1.49h-2.19v-1.24Z"/>
    <path class="uuid-a15bd573-9504-43f9-b5a4-1eb4c1281751" d="m11.66.6v7.55h2.59v1.27h-3.94V.6h1.35Z"/>
  </g>
  <g>
    <path class="uuid-a15bd573-9504-43f9-b5a4-1eb4c1281751" d="m26.08,2.55h-5.3c-.41,0-1.04.01-1.44.02v-1.26c.36.01.95.02,1.44.02h5.64c.4,0,.72,0,1.02-.01q-.02.38-.04,1.91v4.05c0,.96.01,1.66.04,2.11h-1.36v-.56h-5.38c-.4,0-1.08.02-1.44.04v-1.27c.36.02.97.04,1.44.04h5.38V2.55Z"/>
    <path class="uuid-a15bd573-9504-43f9-b5a4-1eb4c1281751" d="m29.68.47c1.04.59,1.7,1.12,2.64,2.07l-1.02,1.06c-.92-1.02-1.08-1.15-2.42-2.11l.8-1.02Zm-.23,7.92c1.67-.72,2.85-1.39,3.98-2.25,1.01-.78,1.88-1.68,2.59-2.66.36-.52.64-.97,1.16-1.96.35.49.56.74.9,1.01-1.14,2.04-1.91,3.02-3.33,4.26-1.15,1-2.11,1.62-4.14,2.69-.05.17-.1.24-.18.24-.06,0-.14-.06-.2-.14l-.78-1.18Z"/>
    <path class="uuid-a15bd573-9504-43f9-b5a4-1eb4c1281751" d="m39.02,5.36c1.08-.88,1.75-1.5,2.53-2.38.84-.92.97-1.02,1.42-1.02.47,0,.48.01,3.39,2.21,1.24.94,2.61,1.91,3.71,2.61-.41.44-.62.78-.8,1.27-2.02-1.54-2.42-1.86-3.05-2.35q-.38-.3-1.48-1.2-.18-.14-.8-.64c-.59-.47-.73-.55-.9-.55-.11,0-.31.14-.48.34-.1.12-.66.73-.94,1.06-.04.04-.32.35-.74.8-.16.17-.38.43-.68.77-.04.19-.08.28-.16.28s-.16-.05-.2-.11l-.82-1.09Zm9.83-3.91c0,.68-.55,1.24-1.22,1.24s-1.23-.55-1.23-1.24.55-1.22,1.23-1.22,1.22.55,1.22,1.22Zm-1.87,0c0,.36.29.65.65.65s.64-.29.64-.65-.29-.64-.64-.64-.65.29-.65.64Z"/>
    <path class="uuid-a15bd573-9504-43f9-b5a4-1eb4c1281751" d="m56.94,4.43c-.06,1.08-.31,2.16-.65,2.88-.49,1.03-1.36,1.76-2.97,2.55-.34.16-.48.22-.79.34-.22-.52-.44-.89-.76-1.18,2.06-.79,2.83-1.34,3.32-2.37.29-.59.48-1.43.53-2.22h-2.72c-.61,0-1.4.01-1.91.04v-1.24c.5.02,1.3.04,1.91.04h5.97c.55,0,1.39-.01,1.91-.04v1.24c-.52-.02-1.35-.04-1.91-.04h-1.93Zm2.71-2.88c-.37-.01-1.04-.02-1.44-.02h-4.34c-.4,0-1.07.01-1.43.02V.3c.36.01.97.02,1.43.02h4.34c.47,0,1.08-.01,1.44-.02v1.25Z"/>
    <path class="uuid-a15bd573-9504-43f9-b5a4-1eb4c1281751" d="m66.65,4.79c.14.01.22.07.22.18,0,.08-.05.14-.16.23-.01.49-.01.53-.01,1.32v2.03c0,.6.01,1.37.02,1.76h-1.27c.05-.46.06-.68.06-1.76v-2.82q-.17.14-.67.59c-.53.46-1.43,1.09-2.41,1.68-.31-.52-.44-.68-.78-.98,1.8-1.03,3.03-1.99,4.15-3.2.85-.94,1.3-1.56,1.51-2.1l1.1.53c.07.04.12.1.12.17,0,.1-.06.16-.25.19-.01.02-.31.41-.89,1.15q-.42.53-.91,1.03h.17Z"/>
    <path class="uuid-a15bd573-9504-43f9-b5a4-1eb4c1281751" d="m70.97,2.87c.96.56,1.26.78,2.28,1.7l-.92,1.07c-.72-.74-1.25-1.16-2.16-1.75l.8-1.02Zm-.04,6c1.87-.67,3.05-1.26,4.31-2.13,1.69-1.18,2.51-2.12,3.85-4.41.42.5.64.72.96,1-1,1.66-1.52,2.35-2.46,3.27-1,.97-2.11,1.77-3.43,2.43-.55.29-1,.49-2.07.98-.05.16-.11.24-.19.24-.06,0-.14-.06-.2-.16l-.76-1.22Zm1.61-8.86c.97.56,1.27.78,2.29,1.7l-.94,1.06c-.72-.73-1.24-1.15-2.15-1.74l.79-1.02Z"/>
    <path class="uuid-a15bd573-9504-43f9-b5a4-1eb4c1281751" d="m86.34,3.74h-3.57c-.37,0-.78,0-1.22.02v-1.2c.3.01.78.02,1.22.02h3.92c.34,0,.62,0,.9-.01q-.02.41-.04,1.61v3.59c0,.88.01,1.33.04,1.76h-1.25v-.46h-3.65c-.34,0-.85.01-1.22.02v-1.2c.42.02.85.02,1.22.02h3.65v-1.57h-3.29c-.34,0-.85.01-1.22.02v-1.2c.42.01.85.02,1.22.02h3.29v-1.46Z"/>
    <path class="uuid-a15bd573-9504-43f9-b5a4-1eb4c1281751" d="m90.48.47c1.04.59,1.7,1.12,2.64,2.07l-1.02,1.06c-.92-1.02-1.08-1.15-2.42-2.11l.8-1.02Zm-.23,7.92c1.67-.72,2.85-1.39,3.98-2.25,1.01-.78,1.88-1.68,2.59-2.66.36-.52.64-.97,1.16-1.96.35.49.56.74.9,1.01-1.14,2.04-1.91,3.02-3.33,4.26-1.15,1-2.11,1.62-4.14,2.69-.05.17-.1.24-.18.24-.06,0-.14-.06-.2-.14l-.78-1.18Z"/>
  </g>
  <g>
    <path class="uuid-a15bd573-9504-43f9-b5a4-1eb4c1281751" d="m109.81,9.55h-5.92l3.05-3.7c.3-.37.77-.95,1.06-1.37.25-.37.46-.75.46-1.27,0-.74-.49-1.43-1.47-1.43s-1.51.77-1.56,1.6h-1.3c.04-.86.4-1.55.74-1.93.32-.36.95-.86,2.06-.86,1.88,0,2.84,1.28,2.84,2.66,0,.73-.28,1.32-.63,1.85-.32.48-.73.96-1.26,1.59l-1.37,1.63h3.29v1.24Z"/>
    <path class="uuid-a15bd573-9504-43f9-b5a4-1eb4c1281751" d="m112.71,8.75c-.93-1.06-1.12-2.45-1.12-3.59s.2-2.55,1.12-3.61c.56-.63,1.22-.95,2-.95s1.44.32,2,.95c.93,1.06,1.12,2.47,1.12,3.61s-.2,2.54-1.12,3.59c-.56.63-1.2.95-2,.95s-1.44-.32-2-.95Zm.81-6.24c-.49.73-.61,1.86-.61,2.63s.12,1.9.61,2.64c.38.58.85.73,1.19.73s.81-.15,1.19-.73c.49-.74.61-1.86.61-2.64s-.12-1.9-.61-2.63c-.38-.58-.85-.73-1.19-.73s-.81.15-1.19.73Z"/>
    <path class="uuid-a15bd573-9504-43f9-b5a4-1eb4c1281751" d="m124.83,9.55h-5.92l3.05-3.7c.3-.37.77-.95,1.06-1.37.25-.37.46-.75.46-1.27,0-.74-.49-1.43-1.47-1.43s-1.51.77-1.56,1.6h-1.3c.04-.86.4-1.55.74-1.93.32-.36.95-.86,2.06-.86,1.88,0,2.84,1.28,2.84,2.66,0,.73-.28,1.32-.63,1.85-.32.48-.73.96-1.26,1.59l-1.37,1.63h3.29v1.24Z"/>
    <path class="uuid-a15bd573-9504-43f9-b5a4-1eb4c1281751" d="m126.87,2.98c.04-.71.34-1.32.75-1.72.61-.58,1.35-.67,1.93-.67.67,0,1.33.13,1.9.73.46.48.63,1.04.63,1.68,0,.42-.08.79-.3,1.16-.24.38-.54.61-.79.74.45.17.73.48.87.7.25.37.37.86.37,1.36,0,.87-.33,1.55-.75,1.97-.63.63-1.47.77-2.15.77s-1.4-.13-1.97-.74c-.4-.42-.69-1.12-.75-1.8h1.3c.07.4.25.74.48.95.19.17.52.4,1.07.4.41,0,.79-.16,1.03-.37.25-.24.46-.65.46-1.24,0-.29-.05-.71-.4-1.04-.38-.37-.86-.4-1.14-.4h-.26v-1.14h.19c.57,0,.93-.19,1.12-.38.21-.21.34-.54.34-.94,0-.46-.2-.74-.34-.89-.3-.29-.67-.33-.94-.33-.32,0-.69.05-.98.36-.3.32-.37.79-.37.85h-1.29Z"/>
  </g>
</svg>