<?xml version="1.0" encoding="UTF-8"?>
<svg id="uuid-42d4aa77-dc44-404b-b546-bdb0b0a35e9f" data-name="レイヤー 1" xmlns="http://www.w3.org/2000/svg" viewBox="0 0 509.08 205.53">
  <defs>
    <style>
      .uuid-4a9a9095-4599-4adf-92fc-0d64182ac7ef {
        fill: #f9eb9f;
        stroke-width: 0px;
      }
    </style>
  </defs>
  <g>
    <path class="uuid-4a9a9095-4599-4adf-92fc-0d64182ac7ef" d="m266.8,26.58l-33.2-19.18c-7.54-4.36-16.92-4.36-24.46,0l-74,42.69,45.7,26.09,85.96-49.59Zm-56.91-.21c7.08-4.09,15.88-4.08,22.96,0l15.63,9.03-6.16,3.55-8.73-5.04c-7.54-4.36-16.91-4.36-24.46,0l-49.38,28.49-6.19-3.54,56.33-32.5Zm-57.84,31.63l-6.19-3.54,64.03-36.94c7.08-4.09,15.88-4.08,22.96,0l23.29,13.46-6.16,3.55-16.38-9.47c-7.54-4.36-16.92-4.36-24.46,0l-57.09,32.93Zm57.84-22.79c7.08-4.09,15.88-4.08,22.96,0l7.98,4.61-6.16,3.55-1.07-.62c-7.54-4.36-16.91-4.36-24.46,0l-41.68,24.05-6.19-3.54,48.62-28.05Zm0,8.84c7.08-4.09,15.88-4.08,22.96,0l.32.19-7.76,4.48v-.06c-5.58-.94-11.36.1-16.28,2.93l-33.98,19.6-6.19-3.54,40.92-23.61Zm0-35.37c7.08-4.09,15.88-4.08,22.96,0l30.95,17.88-6.16,3.55-24.04-13.89c-7.54-4.36-16.92-4.36-24.46,0l-64.79,37.38-6.19-3.54L209.89,8.69Zm-33.22,63.37l33.22-19.16c4.08-2.35,8.79-3.38,13.46-2.98l-42.51,24.52-4.17-2.38Z"/>
    <path class="uuid-4a9a9095-4599-4adf-92fc-0d64182ac7ef" d="m221.83,154.76l-42.31-24.49-1.33-53.47-45.42-26.24-.03,88.99c0,8.76,4.71,16.93,12.29,21.32l77.14,44.65.07-50.52-.42-.24h0Zm-78.77-96.52l2.92,1.69-.02,66.36c0,8.76,4.71,16.93,12.29,21.32l.38-.65-.38.65,62.46,36.15v5.24s-66.13-38.27-66.13-38.27c-7.12-4.12-11.54-11.79-11.54-20.02l.02-72.47Zm4.4,68.05l.02-65.5,2.92,1.69-.02,59.39c0,8.76,4.71,16.93,12.29,21.32l.38-.65-.38.65,58.05,33.6v5.24s-61.72-35.72-61.72-35.72h0c-7.12-4.12-11.54-11.8-11.54-20.02Zm15.96,15.6h0c-7.12-4.12-11.54-11.8-11.54-20.02l.02-58.52,2.92,1.69-.02,52.42c0,8.76,4.71,16.93,12.29,21.32l.38-.65-.38.65,53.64,31.04v5.24s-57.3-33.16-57.3-33.16Zm-7.12-24.45l.02-51.55,2.92,1.69-.02,45.44c0,8.76,4.71,16.93,12.29,21.32l49.22,28.49v5.24s-52.89-30.61-52.89-30.61h0c-7.12-4.12-11.54-11.8-11.54-20.02Zm15.96,15.6c-7.12-4.12-11.54-11.79-11.54-20.02l.02-44.58,2.92,1.69v38.47c-.02,8.76,4.69,16.93,12.28,21.32l2.11,1.22h0s12.27,7.1,12.27,7.1l30.43,17.62v5.24s-48.48-28.06-48.48-28.06Zm4.42-4.42c-7.12-4.12-11.54-11.79-11.54-20.02v-37.6s2.93,1.69,2.93,1.69v31.5c-.01,7.71,3.64,15.02,9.78,19.66l.14,5.55-1.31-.76Zm-3.45-28.87h-.75c0,5.43,1.83,10.76,5.15,15.05l.18,7.07c-5.19-4.37-8.25-10.88-8.25-17.71v-30.63s2.93,1.69,2.93,1.69v24.52s.74,0,.74,0Zm4.33,12.34c-2.31-3.68-3.58-7.97-3.58-12.34v-23.66s2.73,1.57,2.73,1.57l.86,34.42Zm-31.78,47.48c-7.12-4.12-11.54-11.79-11.54-20.02l.03-86.39,7.29,4.21-.03,73.34c0,8.76,4.71,16.93,12.29,21.32l66.87,38.7-.02,12.19-74.9-43.35Z"/>
  </g>
  <path class="uuid-4a9a9095-4599-4adf-92fc-0d64182ac7ef" d="m102.46,115.87h0l-101.71.16c-.27,0-.52.14-.65.38-.13.23-.13.52,0,.75l5.46,9.42v.11s.06,0,.06,0l5.83,10.07v.11s.07,0,.07,0l11.73,20.24v.12s.07,0,.07,0l11.73,20.24v.05s.03,0,.03,0l11.77,20.31v.13s.08,0,.08,0l4.17,7.2c.13.23.38.37.65.37h0c.27,0,.52-.14.65-.38l1.84-3.19h.02v-.03l29.42-51.14h.03s0-.05,0-.05l19.42-33.75c.13-.23.13-.52,0-.75s-.38-.37-.65-.37Zm-12.92,1.52h4.39s0,12.53,0,12.53l-4.35,7.56-.06-20.08Zm-29.47.04h4.39s.05,63.52.05,63.52h.06s-4.45,7.74-4.45,7.74l-.05-71.26Zm5.89,0h4.4s.04,53.4.04,53.4l-4.4,7.64-.05-61.04Zm5.9,0h4.4s.03,43.17.03,43.17l-4.39,7.64-.04-50.8Zm5.9,0h4.4s.02,32.94.02,32.94l-4.39,7.63-.03-40.57Zm-41.27.06h4.39s.05,67.18.05,67.18l-4.4-7.59-.04-59.59Zm-11.78.02h4.39s.04,46.8.04,46.8l-4.4-7.59-.03-39.22Zm-11.78.02h4.39s.02,26.43.02,26.43l-4.4-7.59v-18.84Zm-10.89.02h3.5s0,6.05,0,6.05l-3.51-6.05Zm5.01,8.64v-8.65s4.38,0,4.38,0v16.24s-4.38-7.59-4.38-7.59Zm11.71,20.21h.09s-.02-28.88-.02-28.88h4.39s.03,36.61.03,36.61l-4.48-7.74Zm11.88,20.51l-.04-49.4h4.39s.04,56.99.04,56.99l-4.4-7.59Zm11.8,20.36l-.05-69.78h4.39s.06,77.37.06,77.37l-4.4-7.59Zm9.29,16.04l-3.39-5.86-.06-79.97h4.39s.06,84.08.06,84.08l-1,1.74Zm2.44-85.84h4.4s.06,73.81.06,73.81h.02s-4.42,7.68-4.42,7.68l-.06-81.49Zm29.49-.05h4.38s.06,22.67.06,22.67l-4.42,7.67-.02-30.34Zm11.78,9.91v-9.93s5.72,0,5.72,0l-5.72,9.94Z"/>
  <path class="uuid-4a9a9095-4599-4adf-92fc-0d64182ac7ef" d="m310.86,79.78c-.23-4.59-.98-7.51-2.95-8.63-2.44-1.39-6.26.22-11.96,3.56h0s-65.16,35.8-65.16,35.8l1.52.88h0s3.16,1.82,3.16,1.82l20.7,11.91c.06.04.18.16.32.32h.01c2.33,1.65,3.84,3.78,3.93,5.65.07,1.4-.62,2.63-2.04,3.66l-32.45,20.07v1.48s0,.01,0,.01v1.65h-.02l.02,47.58,1.62-.9,82.99-48.49-.38-.65h.75l.02-71.29c0-.11,0-.21,0-.31v-4.11s-.09,0-.09,0Zm-77.01,30.75l62.08-34.11v.02c5.38-3.18,9.34-5.08,11.24-4,.85.49,1.4,1.64,1.75,3.33l-67.66,39.03-7.41-4.28Zm75.58,44.53l-81.98,47.9v-3.73s0,0,0,0l.04-4.02,81.94-47.27v3.12s0,0,0,0v3.99Zm0-8.84l-81.92,47.26.07-7.15,81.86-47.22v7.11Zm0-8.84l-81.84,47.21.07-7.15,81.78-47.18v7.11Zm0-8.84l-81.76,47.17.07-7.15,81.7-47.13v7.11Zm0-8.84l-81.68,47.12.07-7.15,81.62-47.09v7.11Zm0-8.84l-81.6,47.08.02-2.53,31.36-19.39-.39-.64.44.61c2.23-1.6,2.7-3.44,2.68-4.77l47.5-27.47v7.11Zm0-8.84l-47.77,27.62c-.53-1.76-1.85-3.53-3.76-5l51.53-29.73v7.11Zm0-8.84l-52.9,30.52c-.15-.09-.28-.19-.43-.27h0s-.25-.14-.25-.14h0s-5.46-3.15-5.46-3.15l59.03-34.06v7.11Zm0-8.84l-60.54,34.92-6.16-3.56,66.4-38.31c.2,1.69.28,3.74.29,6.07v.87Z"/>
  <path class="uuid-4a9a9095-4599-4adf-92fc-0d64182ac7ef" d="m330.34,64.33l-.03,76.81c0,7.87,4.23,15.21,11.04,19.14l78.3,45.24.07-205.53-78.33,45.19c-6.82,3.93-11.05,11.27-11.06,19.14Zm25.08,0c0-7.34,3.95-14.17,10.31-17.84l52.5-30.29v5.07s-41.47,23.92-41.47,23.92l.75,1.3,40.71-23.49v5.07s-29.67,17.12-29.67,17.12l.75,1.3,28.92-16.69v5.07s-17.88,10.32-17.88,10.32l.75,1.3,17.13-9.88v5.07s-6.09,3.51-6.09,3.51l.75,1.3,5.34-3.08v6.51c-3.45,4.01-5.36,9.11-5.36,14.4l-.03,76.81c0,5.29,1.9,10.39,5.35,14.4v6.53s-5.34-3.08-5.34-3.08c-6.35-3.67-10.3-10.51-10.29-17.84l.03-76.81c0-7.34,3.95-14.17,10.31-17.84l-.75-1.3c-6.82,3.93-11.05,11.26-11.06,19.14l-.03,76.81c0,7.87,4.23,15.21,11.04,19.14l6.09,3.52v5.08s-17.13-9.89-17.13-9.89c-6.35-3.67-10.3-10.51-10.29-17.84l.03-76.81h-.75s.75,0,.75,0c0-7.34,3.95-14.17,10.31-17.84l-.75-1.3c-6.82,3.93-11.05,11.27-11.06,19.14h0l-.03,76.81c0,7.87,4.23,15.21,11.04,19.14l17.87,10.33v5.08s-28.91-16.7-28.91-16.7c-6.35-3.67-10.3-10.51-10.29-17.84l.03-76.81c0-7.34,3.95-14.17,10.31-17.84l-.75-1.3c-6.82,3.93-11.05,11.26-11.06,19.14l-.03,76.81c0,7.87,4.23,15.21,11.04,19.14l29.66,17.14v5.08s-40.7-23.51-40.7-23.51c-6.35-3.67-10.3-10.51-10.29-17.84l.03-76.81h-.75s.75,0,.75,0c0-7.34,3.95-14.17,10.31-17.84l-.75-1.3c-6.82,3.93-11.05,11.27-11.06,19.14h0l-.03,76.81c0,7.87,4.23,15.21,11.04,19.14l41.45,23.95v5.08s-7.32-4.23-7.32-4.23l-45.16-26.09c-6.35-3.67-10.3-10.51-10.29-17.84l.03-76.81Zm58.94,0c0-4.32,1.36-8.5,3.86-11.98l-.02,50.41-.02,50.35c-2.49-3.48-3.85-7.66-3.85-11.98l.03-76.81Zm3.87-61.73v5.07s-65.05,37.52-65.05,37.52l.75,1.3,64.29-37.09v5.07s-53.26,30.72-53.26,30.72c-6.82,3.93-11.05,11.27-11.06,19.14l-.03,76.81c0,7.87,4.23,15.21,11.04,19.14l45.16,26.09,8.07,4.66v5.08s-19.11-11.04-19.11-11.04l-45.16-26.09c-6.35-3.67-10.3-10.51-10.29-17.84l.03-76.81h-.75s.75,0,.75,0c0-7.34,3.95-14.17,10.31-17.84l-.75-1.3c-6.82,3.93-11.05,11.27-11.06,19.14h0l-.03,76.81c0,7.87,4.23,15.21,11.04,19.14l45.16,26.09,19.86,11.48v5.08s-76.06-43.95-76.06-43.95c-6.35-3.67-10.3-10.51-10.29-17.84l.03-76.81c0-7.34,3.95-14.17,10.31-17.84L418.23,2.6Z"/>
  <path class="uuid-4a9a9095-4599-4adf-92fc-0d64182ac7ef" d="m501.42,125.22l7.66-4.42-41.09-23.74-44.47,25.01v48.09s0,0,0,0v8.84s0,0,0,0v8.84s0,0,0,0v8.84s0,0,0,0v8.84s85.56-49.36,85.56-49.36l-7.66-4.42,7.66-4.42-7.66-4.42,7.66-4.42-7.66-4.42,7.66-4.42-7.66-4.42Zm-33.44-26.43l38.1,22.01-6.16,3.55-31.93-18.45-42.97,24.17v-7.12s42.96-24.16,42.96-24.16Zm-42.96,70.5l51.93-29.96,6.16,3.56-58.08,33.51v-7.11Zm0-1.73v-9.25s42.96-24.16,42.96-24.16l7.47,4.32-50.43,29.09Zm42.97-35.13l-42.97,24.17v-7.12s42.96-24.16,42.96-24.16l15.12,8.74-6.16,3.55-8.96-5.18Zm-42.97,54.55l67.24-38.79,6.16,3.56-73.4,42.34v-7.11Zm0-1.73v-7.11s59.59-34.37,59.59-34.37l6.16,3.56-65.74,37.93Zm61.09-42.35l6.16-3.55,6.16,3.56-6.16,3.55-6.16-3.56Zm-1.5-.87l-6.16-3.56,6.16-3.55,6.16,3.56-6.16,3.55Zm1.5-7.97l6.16-3.55,6.16,3.56-6.16,3.55-6.16-3.56Zm-1.5-.87l-16.61-9.6-42.97,24.16v-7.12s42.96-24.16,42.96-24.16l22.78,13.16-6.16,3.55Zm-16.61-18.44l-42.97,24.17v-7.12s42.96-24.16,42.96-24.16l30.44,17.59-6.16,3.55-24.27-14.02Zm38.09,41.42l-81.06,46.76v-7.11s74.9-43.21,74.9-43.21l6.16,3.56Zm0-8.84l-6.16,3.55-6.16-3.56,6.16-3.55,6.16,3.56Zm0-8.84l-6.16,3.55-6.16-3.56,6.16-3.55,6.16,3.56Zm-12.31-8.85l6.16-3.55,6.16,3.56-6.16,3.55-6.16-3.56Z"/>
</svg>