<?xml version="1.0" encoding="UTF-8"?>
<svg id="uuid-677e7e72-5c3d-4cfa-9598-0f4c6da2b422" data-name="レイヤー 1" xmlns="http://www.w3.org/2000/svg" viewBox="0 0 38.3 8.3">
  <defs>
    <style>
      .uuid-739e03be-16ec-4422-8dbb-d6092bd14532 {
        fill: #fff;
        stroke-width: 0px;
      }
    </style>
  </defs>
  <path class="uuid-739e03be-16ec-4422-8dbb-d6092bd14532" d="m3.93,1.92c-.07-.18-.18-.35-.36-.5-.25-.2-.52-.29-.86-.29-.74,0-1.13.44-1.13.96,0,.24.08.66.86.97l.8.32c1.48.6,1.88,1.44,1.88,2.35,0,1.52-1.08,2.57-2.58,2.57-.92,0-1.48-.35-1.88-.8-.43-.48-.62-1.01-.67-1.56l1.21-.26c0,.4.14.77.34,1.02.23.29.56.48,1.04.48.74,0,1.32-.54,1.32-1.34s-.62-1.15-1.15-1.37l-.77-.32c-.66-.28-1.63-.83-1.63-2.03C.36,1.03,1.2,0,2.7,0c.86,0,1.36.32,1.61.54.22.19.44.47.61.8l-.98.58Z"/>
  <path class="uuid-739e03be-16ec-4422-8dbb-d6092bd14532" d="m12.6,2.02c-.89-.8-1.72-.89-2.17-.89-1.74,0-2.91,1.28-2.91,3.05s1.22,3,2.93,3c.96,0,1.7-.49,2.16-.92v1.45c-.8.48-1.64.6-2.19.6-1.45,0-2.36-.66-2.83-1.1-.94-.88-1.28-1.9-1.28-3.02,0-1.48.61-2.49,1.28-3.13.83-.78,1.79-1.04,2.89-1.04.73,0,1.44.13,2.13.58v1.44Z"/>
  <path class="uuid-739e03be-16ec-4422-8dbb-d6092bd14532" d="m15.54.14c.97,0,1.6.12,2.11.47.88.59.95,1.54.95,1.88,0,1.15-.71,1.99-1.77,2.23l2.49,3.42h-1.48l-2.29-3.27h-.22v3.27h-1.22V.14h1.43Zm-.2,3.67h.38c.34,0,1.7-.04,1.7-1.31,0-1.13-1.07-1.24-1.67-1.24h-.42v2.54Z"/>
  <path class="uuid-739e03be-16ec-4422-8dbb-d6092bd14532" d="m28.46,4.15c0,2.35-1.76,4.15-4.16,4.15s-4.16-1.8-4.16-4.15,1.76-4.15,4.16-4.15,4.16,1.8,4.16,4.15Zm-1.22,0c0-1.78-1.22-3.02-2.94-3.02s-2.94,1.25-2.94,3.02,1.22,3.02,2.94,3.02,2.94-1.25,2.94-3.02Z"/>
  <path class="uuid-739e03be-16ec-4422-8dbb-d6092bd14532" d="m31.22.14v6.85h2.35v1.15h-3.57V.14h1.22Z"/>
  <path class="uuid-739e03be-16ec-4422-8dbb-d6092bd14532" d="m35.95.14v6.85h2.35v1.15h-3.57V.14h1.22Z"/>
</svg>