<?xml version="1.0" encoding="UTF-8"?>
<svg id="uuid-09e95eae-4035-42ac-9777-3c752a7dd4c8" data-name="レイヤー 1" xmlns="http://www.w3.org/2000/svg" viewBox="0 0 140 350">
  <defs>
    <style>
      .uuid-b9ce971e-de61-45e5-8f26-32d4becc55e0 {
        stroke-width: 0px;
      }
    </style>
  </defs>
  <path class="uuid-b9ce971e-de61-45e5-8f26-32d4becc55e0" d="m101.55,63.82c8.26-12.32,10.61-15.2,12.84-15.2,4.72,0,16.64,11.79,16.64,16.64,0,1.57-1.7,2.75-3.93,2.75H25.16c-3.01,0-9.3.26-13.89.66-3.01-4.32-3.15-4.59-3.15-4.98,0-.52.39-.79,1.05-.79,3.8.39,10.48.92,15.2.92h77.18Z"/>
  <path class="uuid-b9ce971e-de61-45e5-8f26-32d4becc55e0" d="m103.26,217.15c6.81-10.22,9.57-13.5,11.4-13.5,2.49,0,7.08,3.28,12.71,9.04,2.23,2.36,3.15,3.67,3.15,5.11,0,1.57-1.7,2.75-4.33,2.75h-42.59c.26,11.27.52,20.97.79,29.09v.66c0,2.62-.79,3.93-2.75,5.11-3.01,1.57-7.21,2.49-11.53,2.49-3.93,0-5.77-1.31-5.77-4.33,0-.66,0-1.7.13-3.28.39-4.85.79-17.3.79-29.75H20.83c-3.01,0-6.29.13-9.3.39-2.36-2.88-2.49-3.15-2.49-3.41,0-.52.39-.92,1.05-.92,3.28.26,7.6.52,9.7.52h12.06c.13-15.33.13-18.08.26-24.5v-5.24c0-1.7,0-3.54-.13-6.55q0-1.57,1.31-1.57c2.1,0,7.86,1.05,12.71,2.49,3.15.92,4.98,1.83,5.9,3.01h13.63c-.13-3.93-.13-6.81-.13-8.78,0-7.21,0-7.73-.13-12.45q0-1.31-.13-4.06h-20.31c-7.21,11.14-15.07,19.66-24.5,26.47-4.32,3.01-9.17,6.03-10.09,6.03-.52,0-.92-.39-.92-.79s.13-.79,1.31-1.97c11.01-12.06,18.08-30.14,20.97-53.2,21.49,3.54,25.16,4.72,25.16,7.86,0,1.83-1.31,2.88-5.37,4.33-1.97,3.54-3.28,5.77-4.46,7.73h50.71c2.1-2.75,4.19-5.37,6.29-8.12,1.97-2.75,3.41-3.8,4.85-3.8,4.32,0,15.33,9.57,15.33,13.24,0,1.57-1.44,2.23-4.72,2.23h-32.89c.13.26.13.52.13.79,0,.52-.52,1.05-1.18,1.44-1.83.92-1.83,1.05-1.97,2.62l-.26,20.44h11.4q1.05-1.44,4.46-6.29c2.49-3.54,4.33-5.24,5.63-5.24,1.57,0,6.03,2.75,10.35,6.42,2.88,2.49,4.19,4.19,4.19,5.63,0,1.57-1.7,2.75-4.06,2.75h-31.97l.39,29.09h19.66Zm-52.02-29.09c-1.05.52-1.31.92-1.57,1.83-.26.92-.39,10.88-.39,21.75,0,1.57,0,2.62.13,5.5h15.99l.13-29.09h-14.28Z"/>
  <path class="uuid-b9ce971e-de61-45e5-8f26-32d4becc55e0" d="m128.03,289.49c0,9.44-7.6,17.04-16.9,17.04s-17.04-7.6-17.04-17.04,7.6-16.9,17.04-16.9,16.9,7.6,16.9,16.9Zm-28.44,0c0,6.42,5.11,11.53,11.53,11.53s11.4-5.11,11.4-11.53-5.11-11.4-11.4-11.4-11.53,5.11-11.53,11.4Z"/>
</svg>