<?xml version="1.0" encoding="UTF-8"?>
<svg id="uuid-1ba3c6d5-7453-4025-bb8f-2a2ba44047c7" data-name="レイヤー 1" xmlns="http://www.w3.org/2000/svg" viewBox="0 0 140 350">
  <defs>
    <style>
      .uuid-5b439269-4b6f-4c78-828d-0189fee6a0cb {
        fill: none;
        stroke: #fff;
        stroke-miterlimit: 10;
      }
    </style>
  </defs>
  <path class="uuid-5b439269-4b6f-4c78-828d-0189fee6a0cb" d="m37.47,34.67c4.19-5.9,4.98-6.68,6.16-6.68,3.41,0,13.63,8.52,13.63,11.27,0,1.31-.66,2.1-4.06,4.32.13,9.83.13,11.79.92,45.34,0,4.32-4.32,6.95-11.53,6.95-3.41,0-4.59-.92-4.59-3.93v-3.01h-10.22q0,3.93.26,10.61c0,3.28-.79,4.72-3.28,6.16-1.83,1.05-4.46,1.7-6.95,1.7-3.8,0-4.98-.92-4.98-3.67,0-2.49,0-3.67.13-9.43.26-9.17.52-30.79.52-37.35v-19.26c0-3.01,0-4.98-.13-7.34,0-.66.26-.92.92-.92,1.83,0,10.09,2.36,12.45,3.54,1.44.79,1.83,1.18,2.1,1.7h8.65Zm.79,14.55c0-10.75,0-11.01-.79-11.53h-7.86c-1.97,0-2.23.53-2.23,9.3l.26,38.92h10.48c0-2.75,0-7.73.13-15.2v-21.49Zm73.78,39.58q5.37-14.81,7.73-14.81c2.1,0,5.5,2.1,9.7,5.9,3.8,3.54,4.19,4.06,4.19,5.63,0,1.18-1.05,2.1-2.75,2.49l-22.67,4.98q.26,10.88.26,15.59c.13,7.86.26,13.63.39,16.64.13,2.49.13,3.14.13,4.59,0,2.88-.66,3.93-3.41,5.5-2.49,1.44-5.77,2.36-8.52,2.36-4.19,0-5.77-1.31-5.77-4.59q0-1.83.39-21.36l.26-15.07-43.77,9.7c-4.46,1.18-7.08,1.83-7.86,2.1-2.88-2.23-3.14-2.62-3.14-3.01s.39-.52,1.31-.66c1.96-.26,4.46-.52,6.03-.92l20.31-4.59q0-7.86.13-59.1c0-3.8-.13-8.91-.39-12.71,0-.66.26-.79,1.44-.79,2.49,0,9.04,1.18,13.37,2.49,2.75.92,4.19,2.1,4.19,3.54,0,1.31-1.05,2.23-3.8,3.54-.13,4.46-.13,5.77-.13,6.81v37.74c0,5.37,0,10.75.13,15.2l12.19-2.62c.13-8.78.13-12.71.13-18.21,0-18.21-.26-54.12-.39-56.22v-3.14c0-.26.26-.53.92-.53.39,0,3.01.39,3.67.53,11.53,1.57,16.38,3.41,16.38,6.03,0,1.18-.79,2.1-4.06,4.06-.13,7.73-.39,34.33-.39,44.95v18.74l3.8-.79Z"/>
  <path class="uuid-5b439269-4b6f-4c78-828d-0189fee6a0cb" d="m79.28,198.61c10.88,9.7,18.35,15.86,23.19,19.26,6.16,4.59,7.34,4.98,14.55,8.52,6.95,3.28,11.14,8.12,11.14,12.97,0,4.06-3.15,6.95-7.47,6.95-7.86,0-16.64-7.08-37.74-29.88-16.64-18.21-20.7-21.49-25.42-21.49-3.54,0-7.21,2.1-12.45,6.95-3.28,2.88-3.8,3.41-7.08,7.6q-1.31,1.44-3.67,4.06c-2.62,3.01-3.93,3.8-6.42,3.8-4.46,0-8.65-2.49-12.71-7.47-1.83-2.49-2.75-4.32-2.75-5.9,0-.52.26-.92.66-.92s.92.13,2.23.26c.92.13,1.97.13,3.54.13,1.97,0,2.88,0,4.98-.66,3.15-1.05,7.86-3.93,20.44-11.66,5.9-3.41,8.78-4.32,13.1-4.32,6.68,0,11.27,2.49,21.88,11.79Zm13.37-17.04c-1.18,0-2.62-.79-3.28-1.7-.39-.52-.66-1.05-1.57-3.93-1.18-3.54-4.32-7.86-7.47-9.7-.26-.13-.52-.39-.52-.66,0-.39.26-.52.79-.52,8.26,0,16.9,6.03,16.9,11.66,0,2.49-2.36,4.85-4.85,4.85Zm1.83-21.23c10.35,0,16.25,3.28,16.25,9.04,0,3.01-2.1,5.11-5.24,5.11-2.1,0-2.62-.53-4.59-4.85-1.44-3.01-5.9-6.95-8.78-7.73-.52-.13-.79-.39-.79-.66,0-.65.92-.92,3.15-.92Z"/>
  <path class="uuid-5b439269-4b6f-4c78-828d-0189fee6a0cb" d="m117.28,312.49c-4.46,0-6.95-2.23-8.65-7.6-3.15-9.44-7.73-16.12-14.02-20.05-.92-.52-1.18-.92-1.18-1.31,0-.66.52-1.05,1.7-1.05,3.93,0,10.62,1.44,15.86,3.28,9.83,3.54,15.59,9.83,15.59,16.77,0,5.63-4.06,9.96-9.3,9.96Z"/>
</svg>